<?xml version="1.0" encoding="UTF-8" standalone="no"?>
<!-- Created with Inkscape (http://www.inkscape.org/) -->

<svg
   width="24.98435mm"
   height="30.20476mm"
   viewBox="0 0 24.98435 30.20476"
   version="1.1"
   id="svg22627"
   xmlns:xlink="http://www.w3.org/1999/xlink"
   xmlns="http://www.w3.org/2000/svg"
   xmlns:svg="http://www.w3.org/2000/svg">
  <defs
     id="defs22624">
    <linearGradient
       xlink:href="#linearGradient15047"
       id="linearGradient29689-28-9"
       x1="179.51137"
       y1="89.487602"
       x2="167.08293"
       y2="109.59593"
       gradientUnits="userSpaceOnUse" />
    <linearGradient
       id="linearGradient15047">
      <stop
         style="stop-color:#0172d2;stop-opacity:1;"
         offset="0"
         id="stop15043" />
      <stop
         style="stop-color:#1a67ff;stop-opacity:1;"
         offset="1"
         id="stop15045" />
    </linearGradient>
    <linearGradient
       xlink:href="#linearGradient27264"
       id="linearGradient27266-56-2"
       x1="167.4735"
       y1="88.82209"
       x2="170.19112"
       y2="95.30439"
       gradientUnits="userSpaceOnUse" />
    <linearGradient
       id="linearGradient27264">
      <stop
         style="stop-color:#0f49b8;stop-opacity:1;"
         offset="0"
         id="stop27260" />
      <stop
         style="stop-color:#193b92;stop-opacity:1;"
         offset="1"
         id="stop27262" />
    </linearGradient>
    <linearGradient
       xlink:href="#linearGradient15041"
       id="linearGradient32733-44-2"
       x1="147.25032"
       y1="134.82159"
       x2="168.76831"
       y2="108.99753"
       gradientUnits="userSpaceOnUse" />
    <linearGradient
       id="linearGradient15041">
      <stop
         style="stop-color:#00a4f3;stop-opacity:1;"
         offset="0"
         id="stop15037" />
      <stop
         style="stop-color:#0053d4;stop-opacity:1;"
         offset="1"
         id="stop15039" />
    </linearGradient>
    <linearGradient
       xlink:href="#linearGradient37725"
       id="linearGradient29689-3-02-3"
       x1="173.42595"
       y1="119.38552"
       x2="173.9621"
       y2="85.518852"
       gradientUnits="userSpaceOnUse" />
    <linearGradient
       id="linearGradient37725">
      <stop
         style="stop-color:#fea400;stop-opacity:1;"
         offset="0"
         id="stop37721" />
      <stop
         style="stop-color:#ff9201;stop-opacity:1;"
         offset="1"
         id="stop37723" />
    </linearGradient>
    <linearGradient
       xlink:href="#linearGradient40077"
       id="linearGradient27266-7-5-3"
       x1="164.49223"
       y1="88.477264"
       x2="168.7359"
       y2="95.701263"
       gradientUnits="userSpaceOnUse" />
    <linearGradient
       id="linearGradient40077">
      <stop
         style="stop-color:#fe8700;stop-opacity:1;"
         offset="0"
         id="stop40073" />
      <stop
         style="stop-color:#fe5900;stop-opacity:1;"
         offset="1"
         id="stop40075" />
    </linearGradient>
    <linearGradient
       xlink:href="#linearGradient35580"
       id="linearGradient32733-4-8-2"
       x1="174.93143"
       y1="121.06185"
       x2="126.5539"
       y2="121.20402"
       gradientUnits="userSpaceOnUse" />
    <linearGradient
       id="linearGradient35580">
      <stop
         style="stop-color:#ff7f00;stop-opacity:1;"
         offset="0"
         id="stop35576" />
      <stop
         style="stop-color:#ffa500;stop-opacity:1;"
         offset="1"
         id="stop35578" />
    </linearGradient>
  </defs>
  <g
     id="layer1"
     transform="translate(-82.408846,-31.293288)">
    <g
       id="g18103"
       transform="translate(58.651445,68.492874)">
      <g
         id="g90724-5-8"
         transform="matrix(-0.35932623,0,0,-0.35932623,102.97709,6.2745988)">
        <g
           id="g34670-0-0"
           transform="translate(40.684386,-12.506255)">
          <path
             id="path13254-8-3"
             style="fill:url(#linearGradient29689-28-9);fill-opacity:1;stroke:none;stroke-width:0.832272;stroke-miterlimit:1.6;paint-order:fill markers stroke"
             d="m 177.85271,85.321924 c 0.002,0.0091 0.005,0.01825 0.007,0.02739 0.0102,0.04277 0.0198,0.08566 0.0289,0.128675 0.009,0.04313 0.0174,0.08636 0.0253,0.129707 0.008,0.04331 0.0154,0.08672 0.0222,0.130225 0.007,0.0435 0.013,0.08708 0.0186,0.130741 0.006,0.04351 0.0109,0.0871 0.0155,0.130742 0.004,0.04387 0.008,0.0878 0.0114,0.131775 0.003,0.04389 0.006,0.08782 0.008,0.131775 0.002,0.0439 0.004,0.08783 0.005,0.131775 v 0.0021 0.0015 0.0021 0.0015 0.0021 l 5.2e-4,0.0021 v 0.0016 0.0021 0.0016 0.0021 0.0021 0.0015 0.0021 0.0016 0.0021 0.0021 0.0015 0.0021 0.0016 l 5.1e-4,0.0021 v 0.0021 0.0016 0.0021 0.0021 0.0016 0.0021 0.0016 0.0021 0.0021 0.0015 0.0021 0.0016 0.0021 0.0021 0.0016 0.0021 0.0015 0.0021 0.0021 l 5.2e-4,0.0016 v 0.0021 0.0015 0.0021 0.0021 0.0015 0.0021 0.0016 0.0021 0.0021 0.0016 0.0021 0.0015 0.0021 0.0021 0.0015 0.0021 0.0021 0.0015 0.0021 0.0016 0.0021 0.0021 0.0016 0.0021 0.0015 0.0021 0.0021 0.0015 0.0021 0.0015 0.0021 0.0052 0.0057 0.0052 0.0057 0.0052 0.0057 0.0052 0.0057 0.0052 0.0052 l -5.2e-4,0.0057 v 0.0052 0.0057 0.0052 0.0057 0.0052 0.0057 l -5.1e-4,0.0052 v 0.0052 0.0057 0.0052 0.0057 l -5.2e-4,0.0052 v 0.0057 0.0052 0.0057 l -5.2e-4,0.0052 v 0.0052 0.0057 l -5.1e-4,0.0052 v 0.0057 0.0052 l -5.2e-4,0.0057 v 0.0052 0.0057 l -5.2e-4,0.0052 v 0.0052 l -5.1e-4,0.0057 v 0.0052 0.0057 l -5.2e-4,0.0052 v 0.0057 l -5.2e-4,0.0052 v 0.0052 l -5.1e-4,0.0057 v 0.0052 l -5.2e-4,0.0057 v 0.0052 l -5.2e-4,0.0057 v 0.0052 l -5.1e-4,0.0057 v 0.0052 l -5.2e-4,0.0052 v 0.0057 l -5.2e-4,0.0052 -5.1e-4,0.0057 v 0.0052 l -5.2e-4,0.0057 -5.2e-4,0.0052 v 0.0052 l -5.1e-4,0.0057 -5.2e-4,0.0052 v 0.0057 l -5.2e-4,0.0052 -5.2e-4,0.0052 v 0.0057 l -5.1e-4,0.0052 -5.2e-4,0.0057 v 0.0052 l -5.2e-4,0.0057 -5.1e-4,0.0052 c -0.01,0.127269 -0.0239,0.254137 -0.0429,0.380338 -0.019,0.126592 -0.0428,0.252427 -0.0713,0.377238 -0.0286,0.124534 -0.0619,0.247955 -0.0997,0.370003 -0.0375,0.122107 -0.0796,0.24277 -0.12609,0.361735 -0.0468,0.119007 -0.098,0.236222 -0.15348,0.3514 -0.0555,0.115022 -0.11535,0.227928 -0.17932,0.338481 -0.0638,0.11085 -0.1317,0.219275 -0.2036,0.325045 -0.0721,0.105643 -0.14811,0.208551 -0.2279,0.308508 -0.0795,0.09988 -0.16281,0.196757 -0.24959,0.290421 -0.0868,0.09378 -0.17718,0.184276 -0.27079,0.271302 -0.0938,0.0868 -0.19088,0.170055 -0.29094,0.249597 -0.0585,0.0452 -0.11791,0.08914 -0.17828,0.131775 l -0.94465,0.545186 -1.95853,1.13068 -6.1402,3.545004 -5.1e-4,-5.17e-4 -2.1115,1.219047 -8.50491,4.910298 8.06979,4.65915 7.88583,4.55372 c 0.0536,0.0378 0.10647,0.0765 0.15864,0.11627 0.0721,0.0556 0.14272,0.11295 0.21188,0.17209 0.0691,0.0594 0.13661,0.1206 0.20257,0.18345 0.0659,0.0626 0.13014,0.12688 0.19275,0.19275 0.0627,0.066 0.12367,0.13351 0.18293,0.20257 0.0593,0.0692 0.11687,0.13981 0.1726,0.21188 0.0558,0.0718 0.1097,0.14506 0.16175,0.21962 0.0521,0.0749 0.10219,0.15101 0.15038,0.22841 0.0481,0.0772 0.0943,0.1556 0.13849,0.23513 0.0441,0.0795 0.0861,0.16018 0.12609,0.24184 0.0402,0.0817 0.0782,0.16442 0.11421,0.24805 0.0359,0.0837 0.0697,0.16831 0.10128,0.25373 0.0316,0.0854 0.0611,0.17153 0.0884,0.25839 0.0272,0.0869 0.0522,0.17439 0.0749,0.26251 0.0227,0.088 0.0432,0.17658 0.0615,0.26562 0.0185,0.0891 0.0346,0.17875 0.0486,0.26872 0.0137,0.09 0.025,0.18025 0.0341,0.27078 0.009,0.0906 0.0164,0.1814 0.0212,0.27234 0.005,0.0909 0.007,0.18186 0.007,0.27285 3e-5,0.2566 -0.0183,0.51288 -0.0548,0.76687 -0.0365,0.25403 -0.091,0.50513 -0.1633,0.75138 -0.0723,0.24622 -0.16211,0.48695 -0.26872,0.72037 -0.10661,0.23328 -0.22974,0.45864 -0.36845,0.67438 -0.1388,0.21587 -0.29285,0.42155 -0.46096,0.61546 -0.16803,0.19393 -0.34971,0.3756 -0.54363,0.54364 -0.18191,0.1563 -0.37406,0.30028 -0.57516,0.43098 l 3.6096,-2.08411 0.0537,-0.031 c 0.17006,-0.0986 0.33657,-0.20323 0.4992,-0.31367 0.17093,-0.11655 0.33744,-0.23945 0.49919,-0.36845 0.16175,-0.12914 0.31861,-0.26428 0.47026,-0.40515 0.15166,-0.14072 0.29801,-0.28707 0.43873,-0.43873 0.14086,-0.15165 0.276,-0.30851 0.40514,-0.47026 0.129,-0.16175 0.25191,-0.32826 0.36846,-0.49919 0.1162,-0.17051 0.226,-0.3453 0.32917,-0.524 l 5.2e-4,5.2e-4 10e-4,-0.002 v -5.2e-4 c 0.10343,-0.17908 0.20014,-0.36197 0.28991,-0.54828 0.0898,-0.18649 0.17249,-0.37628 0.24805,-0.56896 0.0757,-0.19254 0.14409,-0.38784 0.20515,-0.58549 0.0609,-0.19792 0.1143,-0.39805 0.1602,-0.59997 0.0462,-0.20175 0.0848,-0.40515 0.11575,-0.60978 0.0308,-0.20457 0.0539,-0.41021 0.0693,-0.6165 0.0135,-0.18798 0.0205,-0.37636 0.0212,-0.56482 V 110.7674 93.07959 c 5.1e-4,-0.683148 5e-4,-1.878774 5.1e-4,-2.686141 -8.7e-4,-1.869779 -0.68762,-3.674278 -1.93011,-5.071525 z" />
          <path
             id="path27256-1-4"
             style="fill:url(#linearGradient27266-56-2);fill-opacity:1;stroke:none;stroke-width:0.832272;stroke-miterlimit:1.6;paint-order:fill markers stroke"
             d="m 159.69465,73.511792 c -0.1653,-8.1e-5 -0.3304,0.01166 -0.49403,0.03514 -0.16338,0.02376 -0.32485,0.05916 -0.48318,0.105937 -0.15825,0.04645 -0.31298,0.104125 -0.46302,0.172599 -0.15014,0.06846 -0.2952,0.147554 -0.43408,0.236678 -0.13884,0.08932 -0.27112,0.188449 -0.39584,0.296623 -0.1248,0.108135 -0.24171,0.225049 -0.34985,0.349849 -0.10817,0.124716 -0.2073,0.257 -0.29662,0.395842 -0.0893,0.138861 -0.16857,0.283924 -0.2372,0.434082 -0.0685,0.150205 -0.12618,0.305112 -0.1726,0.463537 -0.0466,0.158343 -0.0818,0.319812 -0.10542,0.483175 -0.0227,0.160749 -0.0341,0.322896 -0.0341,0.485242 v 0.03359 25.012424 l 9.69708,-5.599138 0.91932,-0.530717 6.1402,-3.545004 1.95853,-1.13068 0.94465,-0.545186 c 0.0604,-0.04264 0.11981,-0.08657 0.17828,-0.131775 0.10006,-0.07954 0.19711,-0.1628 0.29094,-0.249597 0.0936,-0.08703 0.18394,-0.177523 0.27079,-0.271302 0.0868,-0.09366 0.17004,-0.190539 0.24959,-0.290421 0.0798,-0.09996 0.15581,-0.202865 0.2279,-0.308508 0.0719,-0.10577 0.13981,-0.214195 0.2036,-0.325045 0.064,-0.110553 0.12378,-0.223459 0.17932,-0.338481 0.0555,-0.115178 0.10672,-0.232393 0.15348,-0.3514 0.0465,-0.118965 0.0886,-0.239628 0.12609,-0.361735 0.0378,-0.122048 0.0711,-0.245469 0.0997,-0.370003 0.0285,-0.124811 0.0523,-0.250646 0.0713,-0.377238 0.019,-0.126201 0.0333,-0.253069 0.0429,-0.380338 l 5.1e-4,-0.0052 5.2e-4,-0.0057 v -5.17e-4 -5.17e-4 -5.17e-4 -5.17e-4 -5.16e-4 -5.17e-4 -5.17e-4 -5.17e-4 -5.16e-4 -5.17e-4 l 5.2e-4,-0.0057 5.1e-4,-0.0052 v -5.17e-4 -5.17e-4 -5.16e-4 -5.17e-4 -5.17e-4 -5.17e-4 -5.17e-4 -5.16e-4 -5.17e-4 -5.17e-4 -5.17e-4 l 5.2e-4,-0.0052 5.2e-4,-0.0052 v -5.17e-4 -5.16e-4 -5.17e-4 -5.17e-4 -5.17e-4 -5.16e-4 -5.17e-4 -5.17e-4 -5.17e-4 -5.16e-4 -5.17e-4 l 5.2e-4,-0.0052 5.1e-4,-0.0057 v -5.17e-4 -5.17e-4 -5.17e-4 -5.16e-4 -5.17e-4 -5.17e-4 -5.17e-4 -5.16e-4 -5.17e-4 -5.17e-4 l 5.2e-4,-0.0052 5.2e-4,-0.0057 v -5.17e-4 -5.17e-4 -5.16e-4 -5.17e-4 -5.17e-4 -5.17e-4 -5.16e-4 -5.17e-4 -5.17e-4 -5.17e-4 l 5.1e-4,-0.0057 5.2e-4,-0.0052 v -5.16e-4 -5.17e-4 -5.17e-4 -5.17e-4 -5.17e-4 -5.16e-4 -5.17e-4 -5.17e-4 -5.17e-4 -5.16e-4 -5.17e-4 l 5.2e-4,-0.0052 v -5.17e-4 -5.16e-4 -5.17e-4 -5.17e-4 -5.17e-4 -5.16e-4 -5.17e-4 -5.17e-4 -5.17e-4 -5.16e-4 l 5.1e-4,-0.0057 v -5.17e-4 -5.16e-4 -5.17e-4 -5.17e-4 -5.17e-4 -5.16e-4 -5.17e-4 -5.17e-4 -5.17e-4 -5.16e-4 l 5.2e-4,-0.0057 v -5.17e-4 -5.16e-4 -5.17e-4 -5.17e-4 -5.17e-4 -5.16e-4 -5.17e-4 -5.17e-4 -5.17e-4 -5.16e-4 l 5.2e-4,-0.0057 v -5.17e-4 -5.16e-4 -5.17e-4 -5.17e-4 -5.17e-4 -5.16e-4 -5.17e-4 -5.17e-4 -5.17e-4 -5.17e-4 l 5.1e-4,-0.0057 v -5.17e-4 -5.16e-4 -5.17e-4 -5.17e-4 -5.17e-4 -5.17e-4 -5.16e-4 -5.17e-4 -5.17e-4 -5.17e-4 l 5.2e-4,-0.0052 v -5.17e-4 -5.17e-4 -5.17e-4 -5.16e-4 -5.17e-4 -5.17e-4 -5.17e-4 -5.16e-4 -5.17e-4 -5.17e-4 -5.17e-4 l 5.2e-4,-0.0052 v -5.17e-4 -5.17e-4 -5.17e-4 -5.16e-4 -5.17e-4 -5.17e-4 -5.17e-4 -5.16e-4 -5.17e-4 -5.17e-4 -5.17e-4 -5.16e-4 -5.17e-4 -5.17e-4 -5.17e-4 -5.17e-4 -5.16e-4 -5.17e-4 -5.17e-4 -5.17e-4 -5.16e-4 l 5.1e-4,-0.0057 v -5.17e-4 -5.16e-4 -5.17e-4 -5.17e-4 -5.17e-4 -5.16e-4 -5.17e-4 -5.17e-4 -5.17e-4 -5.16e-4 l 5.2e-4,-0.0052 v -5.17e-4 -5.17e-4 -5.16e-4 -5.17e-4 -5.17e-4 -5.17e-4 -5.16e-4 -5.17e-4 -5.17e-4 -5.17e-4 -5.16e-4 -5.17e-4 -5.17e-4 -5.17e-4 -5.16e-4 -5.17e-4 -5.17e-4 -5.17e-4 -5.17e-4 -5.16e-4 -5.17e-4 l 5.2e-4,-0.0057 v -5.17e-4 -5.17e-4 -5.17e-4 -5.17e-4 -5.16e-4 -5.17e-4 -5.17e-4 -5.17e-4 -5.16e-4 -5.17e-4 -5.17e-4 -5.17e-4 -5.16e-4 -5.17e-4 -5.17e-4 -5.17e-4 -5.16e-4 -5.17e-4 -5.17e-4 -5.17e-4 -5.17e-4 l 5.1e-4,-0.0052 v -5.17e-4 -5.17e-4 -5.16e-4 -5.17e-4 -5.17e-4 -5.17e-4 -5.17e-4 -5.16e-4 -5.17e-4 -5.17e-4 -5.17e-4 -5.16e-4 -5.17e-4 -5.17e-4 -5.17e-4 -5.16e-4 -5.17e-4 -5.17e-4 -5.17e-4 -5.16e-4 -5.17e-4 l 5.2e-4,-0.0052 v -5.17e-4 -5.16e-4 -5.17e-4 -5.17e-4 -5.17e-4 -5.16e-4 -5.17e-4 -5.17e-4 -5.17e-4 -5.17e-4 -5.16e-4 -5.17e-4 -5.17e-4 -5.17e-4 -5.16e-4 -5.17e-4 -5.17e-4 -5.17e-4 -5.16e-4 -5.17e-4 -5.17e-4 -5.17e-4 -5.16e-4 -5.17e-4 -5.17e-4 -5.17e-4 -5.17e-4 -5.16e-4 -5.17e-4 -5.17e-4 -5.17e-4 -5.16e-4 l 5.2e-4,-0.0052 v -5.17e-4 -5.17e-4 -5.16e-4 -5.17e-4 -5.17e-4 -5.17e-4 -5.16e-4 -5.17e-4 -5.17e-4 -5.17e-4 -5.16e-4 -5.17e-4 -5.17e-4 -5.17e-4 -5.16e-4 -5.17e-4 -5.17e-4 -5.17e-4 -5.16e-4 -5.17e-4 -5.17e-4 -5.17e-4 -5.17e-4 -5.16e-4 -5.17e-4 -5.17e-4 -5.17e-4 -5.16e-4 -5.17e-4 -5.17e-4 -5.17e-4 -5.16e-4 -5.17e-4 -5.17e-4 -5.17e-4 -5.16e-4 -5.17e-4 -5.17e-4 -5.17e-4 -5.17e-4 -5.16e-4 -5.17e-4 l 5.1e-4,-0.0052 v -5.16e-4 -5.17e-4 -5.17e-4 -5.17e-4 -5.17e-4 -5.16e-4 -5.17e-4 -5.17e-4 -5.17e-4 -5.16e-4 -5.17e-4 -5.17e-4 -5.17e-4 -5.16e-4 -5.17e-4 -5.17e-4 -5.17e-4 -5.16e-4 -5.17e-4 -5.17e-4 -5.17e-4 -5.17e-4 -5.16e-4 -5.17e-4 -5.17e-4 -5.17e-4 -5.16e-4 -5.17e-4 -5.17e-4 -5.17e-4 -5.16e-4 -5.17e-4 -5.17e-4 -5.17e-4 -5.16e-4 -5.17e-4 -5.17e-4 -5.17e-4 -5.17e-4 -5.16e-4 -5.17e-4 -5.17e-4 -5.17e-4 -5.16e-4 -5.17e-4 -5.17e-4 -5.17e-4 -5.16e-4 -5.17e-4 -5.17e-4 -5.17e-4 -5.16e-4 -5.17e-4 -5.17e-4 -5.17e-4 -5.17e-4 -5.16e-4 -5.17e-4 -5.17e-4 -5.17e-4 -5.16e-4 -5.17e-4 -5.17e-4 l 5.2e-4,-0.0057 v -5.17e-4 -5.17e-4 -5.17e-4 -5.16e-4 -5.17e-4 -5.17e-4 -5.17e-4 -5.16e-4 -5.17e-4 -5.17e-4 -5.17e-4 -5.16e-4 -5.17e-4 -5.17e-4 -5.17e-4 -5.17e-4 -5.16e-4 -5.17e-4 -5.17e-4 -5.17e-4 -5.16e-4 -5.17e-4 -5.17e-4 -5.17e-4 -5.16e-4 -5.17e-4 -5.17e-4 -5.17e-4 -5.16e-4 -5.17e-4 -5.17e-4 -5.17e-4 -5.17e-4 -5.16e-4 -5.17e-4 -5.17e-4 -5.17e-4 -5.16e-4 -5.17e-4 -5.17e-4 -5.17e-4 -5.16e-4 -5.17e-4 -5.17e-4 -5.17e-4 -5.16e-4 -5.17e-4 -5.17e-4 -5.17e-4 -5.16e-4 -5.17e-4 -5.17e-4 -5.17e-4 -5.17e-4 -5.16e-4 -5.17e-4 -5.17e-4 -5.17e-4 -5.16e-4 -5.17e-4 -5.17e-4 -5.17e-4 -5.16e-4 -5.17e-4 -5.17e-4 -5.17e-4 -5.16e-4 -5.17e-4 -5.17e-4 -5.17e-4 -5.17e-4 -5.16e-4 -5.17e-4 -5.17e-4 -5.17e-4 -5.16e-4 -5.17e-4 -5.17e-4 -5.17e-4 -5.16e-4 -5.17e-4 -5.17e-4 -5.17e-4 -5.16e-4 -5.17e-4 -5.17e-4 -5.17e-4 -5.17e-4 -5.16e-4 -5.17e-4 -5.17e-4 -5.17e-4 -5.16e-4 -5.17e-4 -5.17e-4 -5.17e-4 -5.16e-4 -5.17e-4 -5.17e-4 -5.17e-4 -5.16e-4 -5.17e-4 -5.17e-4 -5.17e-4 -5.17e-4 -5.16e-4 -5.17e-4 -5.17e-4 -5.17e-4 -5.16e-4 -5.17e-4 -5.17e-4 -5.17e-4 -5.16e-4 -5.17e-4 -5.17e-4 -5.17e-4 -5.16e-4 -5.17e-4 -5.17e-4 -5.17e-4 -5.17e-4 -5.16e-4 -5.17e-4 -5.17e-4 -5.17e-4 -5.16e-4 -5.17e-4 -5.17e-4 -5.17e-4 -5.16e-4 -5.17e-4 -5.17e-4 -5.17e-4 -5.16e-4 -5.17e-4 -5.17e-4 -5.17e-4 -5.17e-4 -5.16e-4 -5.17e-4 -5.17e-4 -5.17e-4 -5.16e-4 -5.17e-4 -5.17e-4 -5.17e-4 -5.16e-4 -5.17e-4 -5.17e-4 -5.17e-4 -5.16e-4 -5.17e-4 -5.17e-4 -5.17e-4 -5.17e-4 -5.16e-4 -5.17e-4 -5.17e-4 -5.17e-4 -5.16e-4 -5.17e-4 -5.17e-4 -5.17e-4 -5.16e-4 -5.17e-4 -5.17e-4 -5.17e-4 -5.16e-4 -5.17e-4 -5.17e-4 -5.17e-4 -5.17e-4 -5.16e-4 -5.17e-4 -5.17e-4 -5.17e-4 -5.16e-4 -5.17e-4 -5.17e-4 -5.17e-4 -5.16e-4 -5.17e-4 -5.17e-4 -5.17e-4 -5.16e-4 -5.17e-4 -5.17e-4 -5.17e-4 -5.17e-4 -5.16e-4 -5.17e-4 -5.17e-4 -5.17e-4 -5.16e-4 -5.17e-4 -5.17e-4 -5.17e-4 -5.16e-4 -5.17e-4 -5.17e-4 -5.17e-4 -5.16e-4 -5.17e-4 -5.17e-4 -5.17e-4 -5.16e-4 -5.17e-4 -5.17e-4 -5.17e-4 -5.17e-4 -5.16e-4 -5.17e-4 -5.17e-4 -5.17e-4 -5.16e-4 l -5.2e-4,-0.0016 v -5.16e-4 -5.17e-4 -5.17e-4 -5.17e-4 -5.16e-4 -5.17e-4 -5.17e-4 -5.17e-4 -5.17e-4 -5.16e-4 -5.17e-4 -5.17e-4 -5.17e-4 -5.16e-4 -5.17e-4 -5.17e-4 -5.17e-4 -5.16e-4 -5.17e-4 -5.17e-4 -5.17e-4 -5.16e-4 -5.17e-4 -5.17e-4 -5.17e-4 -5.17e-4 -5.16e-4 -5.17e-4 -5.17e-4 -5.17e-4 -5.16e-4 -5.17e-4 -5.17e-4 -5.17e-4 -5.16e-4 -5.17e-4 -5.17e-4 -5.17e-4 -5.16e-4 -5.17e-4 -5.17e-4 -5.17e-4 -5.17e-4 -5.16e-4 -5.17e-4 -5.17e-4 -5.17e-4 -5.16e-4 -5.17e-4 -5.17e-4 -5.17e-4 -5.16e-4 -5.17e-4 -5.17e-4 -5.17e-4 -5.16e-4 -5.17e-4 -5.17e-4 -5.17e-4 -5.17e-4 -5.16e-4 -5.17e-4 -5.17e-4 -5.17e-4 -5.16e-4 -5.17e-4 -5.17e-4 -5.17e-4 -5.16e-4 l -5.1e-4,-0.0021 v -5.17e-4 -5.17e-4 -5.17e-4 -5.17e-4 -5.16e-4 -5.17e-4 -5.17e-4 -5.17e-4 -5.16e-4 -5.17e-4 -5.17e-4 -5.17e-4 -5.16e-4 -5.17e-4 -5.17e-4 -5.17e-4 -5.16e-4 -5.17e-4 -5.17e-4 -5.17e-4 -5.17e-4 -5.16e-4 -5.17e-4 -5.17e-4 -5.17e-4 -5.16e-4 -5.17e-4 -5.17e-4 -5.17e-4 -5.16e-4 -5.17e-4 -5.17e-4 -5.17e-4 -5.16e-4 -5.17e-4 -5.17e-4 -5.17e-4 -5.17e-4 -5.16e-4 -5.17e-4 -5.17e-4 -5.17e-4 -5.16e-4 -5.17e-4 -5.17e-4 -5.17e-4 l -5.2e-4,-0.0021 v -5.16e-4 -5.17e-4 -5.17e-4 -5.17e-4 -5.17e-4 -5.16e-4 -5.17e-4 -5.17e-4 -5.17e-4 -5.16e-4 -5.17e-4 -5.17e-4 -5.17e-4 -5.16e-4 -5.17e-4 -5.17e-4 -5.17e-4 -5.16e-4 c -0.001,-0.04395 -0.003,-0.08787 -0.005,-0.131775 -0.002,-0.04396 -0.005,-0.08789 -0.008,-0.131775 -0.003,-0.04397 -0.007,-0.0879 -0.0114,-0.131775 -0.005,-0.04364 -0.01,-0.08723 -0.0155,-0.130742 -0.006,-0.04366 -0.0118,-0.08724 -0.0186,-0.130741 -0.007,-0.0435 -0.0143,-0.08691 -0.0222,-0.130225 -0.008,-0.04334 -0.0163,-0.08658 -0.0253,-0.129707 -0.009,-0.04301 -0.0187,-0.08591 -0.0289,-0.128675 -0.002,-0.0091 -0.004,-0.01826 -0.007,-0.02739 -8.1e-4,-9.53e-4 -6.7e-4,-0.0024 -0.001,-0.0036 -0.008,-0.03246 -0.0155,-0.06485 -0.0238,-0.09715 -0.0113,-0.04235 -0.0232,-0.08456 -0.0357,-0.126607 -0.0122,-0.04254 -0.0249,-0.08492 -0.0382,-0.127124 -0.0134,-0.04169 -0.0274,-0.08321 -0.0419,-0.124541 -0.0143,-0.0417 -0.0291,-0.08322 -0.0444,-0.12454 -0.0157,-0.04103 -0.0319,-0.08186 -0.0486,-0.122473 l -0.004,-0.0093 c -0.0152,-0.03774 -0.0309,-0.07529 -0.047,-0.112654 -0.0176,-0.04037 -0.0357,-0.08051 -0.0543,-0.120407 -0.0186,-0.03969 -0.0377,-0.07914 -0.0574,-0.118339 -0.0198,-0.03936 -0.0401,-0.07847 -0.061,-0.117305 -0.0207,-0.03886 -0.0419,-0.07744 -0.0636,-0.115755 -0.0216,-0.03818 -0.0436,-0.07608 -0.0661,-0.113688 -0.0226,-0.03785 -0.0457,-0.0754 -0.0693,-0.112655 -0.0236,-0.037 -0.0478,-0.07369 -0.0724,-0.110071 -0.0245,-0.03667 -0.0495,-0.07301 -0.0749,-0.109037 -0.0255,-0.03582 -0.0516,-0.07131 -0.078,-0.106454 -0.0264,-0.03531 -0.0533,-0.07028 -0.0806,-0.104903 -0.0273,-0.03446 -0.055,-0.06857 -0.0832,-0.102319 -0.0282,-0.03378 -0.0568,-0.0672 -0.0858,-0.100252 -0.029,-0.03293 -0.0585,-0.06549 -0.0884,-0.09767 -0.0299,-0.03243 -0.0602,-0.06447 -0.0909,-0.09612 -0.0308,-0.03141 -0.062,-0.06242 -0.0935,-0.09302 -0.0315,-0.03073 -0.0633,-0.06105 -0.0956,-0.09095 -0.0324,-0.02988 -0.0651,-0.05933 -0.0982,-0.08837 -0.0331,-0.02902 -0.0665,-0.05762 -0.10025,-0.08578 -0.0336,-0.02817 -0.0675,-0.0559 -0.1018,-0.0832 -0.0346,-0.02732 -0.0696,-0.0542 -0.1049,-0.08062 -0.0353,-0.02647 -0.071,-0.05248 -0.10697,-0.07803 -0.0357,-0.02561 -0.0717,-0.05076 -0.10801,-0.07545 -0.0366,-0.02442 -0.0734,-0.04836 -0.11058,-0.07183 -0.004,-0.0022 -0.008,-0.0045 -0.0114,-0.0067 L 175.25512,81.98854 161.71641,74.171446 161.0782,73.80351 c -0.13227,-0.05891 -0.2681,-0.109485 -0.40669,-0.151412 -0.15834,-0.0466 -0.31981,-0.08183 -0.48317,-0.10542 -0.16328,-0.0236 -0.32803,-0.03552 -0.493,-0.03566 z" />
          <path
             id="path13454-5-6"
             style="fill:url(#linearGradient32733-44-2);fill-opacity:1;stroke:none;stroke-width:0.799999;stroke-miterlimit:1.6;paint-order:fill markers stroke"
             d="m 156.23129,102.01444 -29.36151,16.95091 -0.3912,0.22582 a 2.4288783,2.4288783 0 0 0 -0.10955,0.0811 2.4288783,2.4288783 0 0 0 -0.13746,0.11834 2.4288783,2.4288783 0 0 0 -0.12867,0.12867 2.4288783,2.4288783 0 0 0 -0.11834,0.13746 2.4288783,2.4288783 0 0 0 -0.10801,0.14624 2.4288783,2.4288783 0 0 0 -0.0966,0.15348 2.4288783,2.4288783 0 0 0 -0.0847,0.16072 2.4288783,2.4288783 0 0 0 -0.0724,0.16639 2.4288783,2.4288783 0 0 0 -0.0605,0.17157 2.4288783,2.4288783 0 0 0 -0.0465,0.1757 2.4288783,2.4288783 0 0 0 -0.0341,0.17828 2.4288783,2.4288783 0 0 0 -0.0207,0.18035 2.4288783,2.4288783 0 0 0 -0.007,0.18139 2.4288783,2.4288783 0 0 0 0,5.2e-4 2.4288783,2.4288783 0 0 0 0,5.1e-4 2.4288783,2.4288783 0 0 0 0,5.2e-4 2.4288783,2.4288783 0 0 0 0,5.2e-4 2.4288783,2.4288783 0 0 0 0,5.1e-4 2.4288783,2.4288783 0 0 0 0,5.2e-4 2.4288783,2.4288783 0 0 0 0,5.2e-4 2.4288783,2.4288783 0 0 0 0,5.1e-4 2.4288783,2.4288783 0 0 0 0,5.2e-4 2.4288783,2.4288783 0 0 0 0,5.2e-4 2.4288783,2.4288783 0 0 0 0,5.1e-4 2.4288783,2.4288783 0 0 0 0,5.2e-4 2.4288783,2.4288783 0 0 0 0,5.2e-4 2.4288783,2.4288783 0 0 0 0,5.1e-4 2.4288783,2.4288783 0 0 0 0,5.2e-4 2.4288783,2.4288783 0 0 0 0,5.2e-4 2.4288783,2.4288783 0 0 0 0,5.1e-4 2.4288783,2.4288783 0 0 0 0,5.2e-4 2.4288783,2.4288783 0 0 0 0,5.2e-4 2.4288783,2.4288783 0 0 0 0,5.1e-4 2.4288783,2.4288783 0 0 0 0,5.2e-4 2.4288783,2.4288783 0 0 0 0,5.2e-4 2.4288783,2.4288783 0 0 0 0,5.1e-4 2.4288783,2.4288783 0 0 0 0,5.2e-4 2.4288783,2.4288783 0 0 0 0,5.2e-4 2.4288783,2.4288783 0 0 0 0,5.1e-4 2.4288783,2.4288783 0 0 0 0,5.2e-4 2.4288783,2.4288783 0 0 0 0,5.2e-4 2.4288783,2.4288783 0 0 0 0,5.1e-4 2.4288783,2.4288783 0 0 0 0,5.2e-4 2.4288783,2.4288783 0 0 0 0,5.2e-4 2.4288783,2.4288783 0 0 0 0,5.1e-4 2.4288783,2.4288783 0 0 0 0,5.2e-4 2.4288783,2.4288783 0 0 0 0,5.2e-4 2.4288783,2.4288783 0 0 0 0,5.2e-4 2.4288783,2.4288783 0 0 0 0,5.1e-4 2.4288783,2.4288783 0 0 0 0,5.2e-4 2.4288783,2.4288783 0 0 0 0,5.2e-4 2.4288783,2.4288783 0 0 0 0,5.1e-4 2.4288783,2.4288783 0 0 0 0,5.2e-4 2.4288783,2.4288783 0 0 0 0,5.2e-4 2.4288783,2.4288783 0 0 0 0,5.1e-4 2.4288783,2.4288783 0 0 0 0,5.2e-4 2.4288783,2.4288783 0 0 0 0,5.2e-4 2.4288783,2.4288783 0 0 0 0,5.1e-4 2.4288783,2.4288783 0 0 0 0,5.2e-4 2.4288783,2.4288783 0 0 0 0,5.2e-4 2.4288783,2.4288783 0 0 0 0,5.1e-4 2.4288783,2.4288783 0 0 0 0,5.2e-4 2.4288783,2.4288783 0 0 0 0,5.2e-4 2.4288783,2.4288783 0 0 0 0,5.1e-4 2.4288783,2.4288783 0 0 0 0,5.2e-4 2.4288783,2.4288783 0 0 0 0,5.2e-4 2.4288783,2.4288783 0 0 0 0,5.1e-4 2.4288783,2.4288783 0 0 0 0,5.2e-4 2.4288783,2.4288783 0 0 0 0,5.2e-4 2.4288783,2.4288783 0 0 0 0,5.1e-4 2.4288783,2.4288783 0 0 0 0,5.2e-4 2.4288783,2.4288783 0 0 0 0,5.2e-4 2.4288783,2.4288783 0 0 0 0,5.1e-4 2.4288783,2.4288783 0 0 0 0,5.2e-4 2.4288783,2.4288783 0 0 0 0,5.2e-4 2.4288783,2.4288783 0 0 0 0,5.1e-4 2.4288783,2.4288783 0 0 0 0,5.2e-4 2.4288783,2.4288783 0 0 0 0,5.2e-4 2.4288783,2.4288783 0 0 0 0,5.1e-4 2.4288783,2.4288783 0 0 0 0,5.2e-4 2.4288783,2.4288783 0 0 0 0,5.2e-4 2.4288783,2.4288783 0 0 0 0,5.2e-4 2.4288783,2.4288783 0 0 0 0,5.1e-4 2.4288783,2.4288783 0 0 0 0,5.2e-4 2.4288783,2.4288783 0 0 0 0,5.2e-4 2.4288783,2.4288783 0 0 0 0,5.1e-4 2.4288783,2.4288783 0 0 0 0,5.2e-4 2.4288783,2.4288783 0 0 0 0,5.2e-4 2.4288783,2.4288783 0 0 0 0,5.1e-4 2.4288783,2.4288783 0 0 0 0,5.2e-4 2.4288783,2.4288783 0 0 0 0,5.2e-4 2.4288783,2.4288783 0 0 0 0,5.1e-4 2.4288783,2.4288783 0 0 0 0,5.2e-4 2.4288783,2.4288783 0 0 0 0,5.2e-4 2.4288783,2.4288783 0 0 0 0,5.1e-4 2.4288783,2.4288783 0 0 0 0,5.2e-4 2.4288783,2.4288783 0 0 0 0,5.2e-4 2.4288783,2.4288783 0 0 0 0,5.1e-4 2.4288783,2.4288783 0 0 0 0,5.2e-4 2.4288783,2.4288783 0 0 0 0,5.2e-4 2.4288783,2.4288783 0 0 0 0,5.1e-4 2.4288783,2.4288783 0 0 0 0,5.2e-4 2.4288783,2.4288783 0 0 0 0,5.2e-4 2.4288783,2.4288783 0 0 0 0,5.1e-4 2.4288783,2.4288783 0 0 0 5.1e-4,0.002 2.4288783,2.4288783 0 0 0 0,5.2e-4 2.4288783,2.4288783 0 0 0 0,5.1e-4 2.4288783,2.4288783 0 0 0 0,5.2e-4 2.4288783,2.4288783 0 0 0 0,5.2e-4 2.4288783,2.4288783 0 0 0 0,5.1e-4 2.4288783,2.4288783 0 0 0 0,5.2e-4 2.4288783,2.4288783 0 0 0 0,5.2e-4 2.4288783,2.4288783 0 0 0 0,5.2e-4 2.4288783,2.4288783 0 0 0 0,5.1e-4 2.4288783,2.4288783 0 0 0 0,5.2e-4 2.4288783,2.4288783 0 0 0 0,5.2e-4 2.4288783,2.4288783 0 0 0 0,5.1e-4 2.4288783,2.4288783 0 0 0 0,5.2e-4 2.4288783,2.4288783 0 0 0 0,5.2e-4 2.4288783,2.4288783 0 0 0 0,5.1e-4 2.4288783,2.4288783 0 0 0 0,5.2e-4 2.4288783,2.4288783 0 0 0 0,5.2e-4 2.4288783,2.4288783 0 0 0 0,5.1e-4 2.4288783,2.4288783 0 0 0 0,5.2e-4 2.4288783,2.4288783 0 0 0 0,5.2e-4 2.4288783,2.4288783 0 0 0 0,5.1e-4 2.4288783,2.4288783 0 0 0 0,5.2e-4 2.4288783,2.4288783 0 0 0 0,5.2e-4 2.4288783,2.4288783 0 0 0 0,5.1e-4 2.4288783,2.4288783 0 0 0 0,5.2e-4 2.4288783,2.4288783 0 0 0 0,5.2e-4 2.4288783,2.4288783 0 0 0 0,5.1e-4 2.4288783,2.4288783 0 0 0 0.003,0.0625 2.4288783,2.4288783 0 0 0 0.004,0.0625 2.4288783,2.4288783 0 0 0 0.006,0.0625 2.4288783,2.4288783 0 0 0 0.007,0.062 2.4288783,2.4288783 0 0 0 0.009,0.0615 2.4288783,2.4288783 0 0 0 0.0103,0.062 2.4288783,2.4288783 0 0 0 0.0119,0.0615 2.4288783,2.4288783 0 0 0 0.0134,0.061 2.4288783,2.4288783 0 0 0 0.0155,0.0605 2.4288783,2.4288783 0 0 0 0.0165,0.0605 2.4288783,2.4288783 0 0 0 0.0181,0.06 2.4288783,2.4288783 0 0 0 0.0202,0.0594 2.4288783,2.4288783 0 0 0 0.0212,0.0584 2.4288783,2.4288783 0 0 0 0.0227,0.0584 2.4288783,2.4288783 0 0 0 0.0243,0.0579 2.4288783,2.4288783 0 0 0 0.0258,0.0568 2.4288783,2.4288783 0 0 0 0.0274,0.0558 2.4288783,2.4288783 0 0 0 0.0284,0.0558 2.4288783,2.4288783 0 0 0 0.03,0.0553 2.4288783,2.4288783 0 0 0 0.0315,0.0532 2.4288783,2.4288783 0 0 0 0.0331,0.0532 2.4288783,2.4288783 0 0 0 0.0341,0.0522 2.4288783,2.4288783 0 0 0 0.0357,0.0517 2.4288783,2.4288783 0 0 0 0.0367,0.0507 2.4288783,2.4288783 0 0 0 0.0382,0.0491 2.4288783,2.4288783 0 0 0 0.0398,0.0486 2.4288783,2.4288783 0 0 0 0.0403,0.0475 2.4288783,2.4288783 0 0 0 0.0419,0.0465 2.4288783,2.4288783 0 0 0 0.0434,0.0455 2.4288783,2.4288783 0 0 0 0.0439,0.0439 2.4288783,2.4288783 0 0 0 0.0455,0.0434 2.4288783,2.4288783 0 0 0 0.0465,0.0419 2.4288783,2.4288783 0 0 0 0.0475,0.0408 2.4288783,2.4288783 0 0 0 0.0486,0.0393 2.4288783,2.4288783 0 0 0 0.0496,0.0382 2.4288783,2.4288783 0 0 0 0.0501,0.0367 2.4288783,2.4288783 0 0 0 0.0517,0.0357 2.4288783,2.4288783 0 0 0 0.0139,0.009 l 0.26355,0.15193 15.44815,8.91987 0.39894,0.23048 a 8.2987852,8.2987852 0 0 0 0.0424,0.0232 8.2987852,8.2987852 0 0 0 0.18965,0.0977 8.2987852,8.2987852 0 0 0 0.19275,0.093 8.2987852,8.2987852 0 0 0 0.19431,0.0884 8.2987852,8.2987852 0 0 0 0.19689,0.0832 8.2987852,8.2987852 0 0 0 0.19947,0.0775 8.2987852,8.2987852 0 0 0 0.2005,0.0729 8.2987852,8.2987852 0 0 0 0.20309,0.0677 8.2987852,8.2987852 0 0 0 0.20412,0.0625 8.2987852,8.2987852 0 0 0 0.20619,0.0568 8.2987852,8.2987852 0 0 0 0.20722,0.0517 8.2987852,8.2987852 0 0 0 0.20826,0.0465 8.2987852,8.2987852 0 0 0 0.20981,0.0413 8.2987852,8.2987852 0 0 0 0.21083,0.0351 8.2987852,8.2987852 0 0 0 0.21136,0.0305 8.2987852,8.2987852 0 0 0 0.21239,0.0248 8.2987852,8.2987852 0 0 0 0.21291,0.0191 8.2987852,8.2987852 0 0 0 0.21342,0.0134 8.2987852,8.2987852 0 0 0 0.21343,0.008 8.2987852,8.2987852 0 0 0 0.21342,0.003 v 5.1e-4 a 8.2987852,8.2987852 0 0 0 0.62063,-0.0232 8.2987852,8.2987852 0 0 0 0.6165,-0.0698 8.2987852,8.2987852 0 0 0 0.60979,-0.11524 8.2987852,8.2987852 0 0 0 0.59944,-0.16072 8.2987852,8.2987852 0 0 0 0.5855,-0.20463 8.2987852,8.2987852 0 0 0 0.56895,-0.24857 8.2987852,8.2987852 0 0 0 0.46509,-0.24546 l 0.16433,-0.0951 20.68866,-11.94397 a 5.3883686,5.3883686 0 0 0 0.22479,-0.12971 l 0.25942,-0.14986 a 5.3883686,5.3883686 0 0 0 0.57516,-0.43098 5.3883686,5.3883686 0 0 0 0.54363,-0.54364 5.3883686,5.3883686 0 0 0 0.46096,-0.61546 5.3883686,5.3883686 0 0 0 0.36845,-0.67438 5.3883686,5.3883686 0 0 0 0.26872,-0.72037 5.3883686,5.3883686 0 0 0 0.1633,-0.75138 5.3883686,5.3883686 0 0 0 0.0548,-0.76687 5.3883686,5.3883686 0 0 0 -0.007,-0.27285 5.3883686,5.3883686 0 0 0 -0.0212,-0.27234 5.3883686,5.3883686 0 0 0 -0.0341,-0.27078 5.3883686,5.3883686 0 0 0 -0.0486,-0.26872 5.3883686,5.3883686 0 0 0 -0.0615,-0.26562 5.3883686,5.3883686 0 0 0 -0.0749,-0.26251 5.3883686,5.3883686 0 0 0 -0.0884,-0.25839 5.3883686,5.3883686 0 0 0 -0.10128,-0.25373 5.3883686,5.3883686 0 0 0 -0.11421,-0.24805 5.3883686,5.3883686 0 0 0 -0.12609,-0.24184 5.3883686,5.3883686 0 0 0 -0.13849,-0.23513 5.3883686,5.3883686 0 0 0 -0.15038,-0.22841 5.3883686,5.3883686 0 0 0 -0.16175,-0.21962 5.3883686,5.3883686 0 0 0 -0.1726,-0.21188 5.3883686,5.3883686 0 0 0 -0.18293,-0.20257 5.3883686,5.3883686 0 0 0 -0.19275,-0.19275 5.3883686,5.3883686 0 0 0 -0.20257,-0.18345 5.3883686,5.3883686 0 0 0 -0.21188,-0.17209 5.3883686,5.3883686 0 0 0 -0.17725,-0.13022 l -0.87385,-0.50436 -6.99233,-4.03748 z" />
        </g>
        <g
           id="g34670-8-9-6"
           transform="rotate(180,165.35957,85.211476)">
          <path
             id="path13254-3-6-9"
             style="fill:url(#linearGradient29689-3-02-3);fill-opacity:1;stroke:none;stroke-width:0.832272;stroke-miterlimit:1.6;paint-order:fill markers stroke"
             d="m 177.85271,85.321924 c 0.002,0.0091 0.005,0.01825 0.007,0.02739 0.0102,0.04277 0.0198,0.08566 0.0289,0.128675 0.009,0.04313 0.0174,0.08636 0.0253,0.129707 0.008,0.04331 0.0154,0.08672 0.0222,0.130225 0.007,0.0435 0.013,0.08708 0.0186,0.130741 0.006,0.04351 0.0109,0.0871 0.0155,0.130742 0.004,0.04387 0.008,0.0878 0.0114,0.131775 0.003,0.04389 0.006,0.08782 0.008,0.131775 0.002,0.0439 0.004,0.08783 0.005,0.131775 v 0.0021 0.0015 0.0021 0.0015 0.0021 l 5.2e-4,0.0021 v 0.0016 0.0021 0.0016 0.0021 0.0021 0.0015 0.0021 0.0016 0.0021 0.0021 0.0015 0.0021 0.0016 l 5.1e-4,0.0021 v 0.0021 0.0016 0.0021 0.0021 0.0016 0.0021 0.0016 0.0021 0.0021 0.0015 0.0021 0.0016 0.0021 0.0021 0.0016 0.0021 0.0015 0.0021 0.0021 l 5.2e-4,0.0016 v 0.0021 0.0015 0.0021 0.0021 0.0015 0.0021 0.0016 0.0021 0.0021 0.0016 0.0021 0.0015 0.0021 0.0021 0.0015 0.0021 0.0021 0.0015 0.0021 0.0016 0.0021 0.0021 0.0016 0.0021 0.0015 0.0021 0.0021 0.0015 0.0021 0.0015 0.0021 0.0052 0.0057 0.0052 0.0057 0.0052 0.0057 0.0052 0.0057 0.0052 0.0052 l -5.2e-4,0.0057 v 0.0052 0.0057 0.0052 0.0057 0.0052 0.0057 l -5.1e-4,0.0052 v 0.0052 0.0057 0.0052 0.0057 l -5.2e-4,0.0052 v 0.0057 0.0052 0.0057 l -5.2e-4,0.0052 v 0.0052 0.0057 l -5.1e-4,0.0052 v 0.0057 0.0052 l -5.2e-4,0.0057 v 0.0052 0.0057 l -5.2e-4,0.0052 v 0.0052 l -5.1e-4,0.0057 v 0.0052 0.0057 l -5.2e-4,0.0052 v 0.0057 l -5.2e-4,0.0052 v 0.0052 l -5.1e-4,0.0057 v 0.0052 l -5.2e-4,0.0057 v 0.0052 l -5.2e-4,0.0057 v 0.0052 l -5.1e-4,0.0057 v 0.0052 l -5.2e-4,0.0052 v 0.0057 l -5.2e-4,0.0052 -5.1e-4,0.0057 v 0.0052 l -5.2e-4,0.0057 -5.2e-4,0.0052 v 0.0052 l -5.1e-4,0.0057 -5.2e-4,0.0052 v 0.0057 l -5.2e-4,0.0052 -5.2e-4,0.0052 v 0.0057 l -5.1e-4,0.0052 -5.2e-4,0.0057 v 0.0052 l -5.2e-4,0.0057 -5.1e-4,0.0052 c -0.01,0.127269 -0.0239,0.254137 -0.0429,0.380338 -0.019,0.126592 -0.0428,0.252427 -0.0713,0.377238 -0.0286,0.124534 -0.0619,0.247955 -0.0997,0.370003 -0.0375,0.122107 -0.0796,0.24277 -0.12609,0.361735 -0.0468,0.119007 -0.098,0.236222 -0.15348,0.3514 -0.0555,0.115022 -0.11535,0.227928 -0.17932,0.338481 -0.0638,0.11085 -0.1317,0.219275 -0.2036,0.325045 -0.0721,0.105643 -0.14811,0.208551 -0.2279,0.308508 -0.0795,0.09988 -0.16281,0.196757 -0.24959,0.290421 -0.0868,0.09378 -0.17718,0.184276 -0.27079,0.271302 -0.0938,0.0868 -0.19088,0.170055 -0.29094,0.249597 -0.0585,0.0452 -0.11791,0.08914 -0.17828,0.131775 l -0.94465,0.545186 -1.95853,1.13068 -6.1402,3.545004 -5.1e-4,-5.17e-4 -2.1115,1.219047 -8.50491,4.910298 8.06979,4.65915 7.88583,4.55372 c 0.0536,0.0378 0.10647,0.0765 0.15864,0.11627 0.0721,0.0556 0.14272,0.11295 0.21188,0.17209 0.0691,0.0594 0.13661,0.1206 0.20257,0.18345 0.0659,0.0626 0.13014,0.12688 0.19275,0.19275 0.0627,0.066 0.12367,0.13351 0.18293,0.20257 0.0593,0.0692 0.11687,0.13981 0.1726,0.21188 0.0558,0.0718 0.1097,0.14506 0.16175,0.21962 0.0521,0.0749 0.10219,0.15101 0.15038,0.22841 0.0481,0.0772 0.0943,0.1556 0.13849,0.23513 0.0441,0.0795 0.0861,0.16018 0.12609,0.24184 0.0402,0.0817 0.0782,0.16442 0.11421,0.24805 0.0359,0.0837 0.0697,0.16831 0.10128,0.25373 0.0316,0.0854 0.0611,0.17153 0.0884,0.25839 0.0272,0.0869 0.0522,0.17439 0.0749,0.26251 0.0227,0.088 0.0432,0.17658 0.0615,0.26562 0.0185,0.0891 0.0346,0.17875 0.0486,0.26872 0.0137,0.09 0.025,0.18025 0.0341,0.27078 0.009,0.0906 0.0164,0.1814 0.0212,0.27234 0.005,0.0909 0.007,0.18186 0.007,0.27285 3e-5,0.2566 -0.0183,0.51288 -0.0548,0.76687 -0.0365,0.25403 -0.091,0.50513 -0.1633,0.75138 -0.0723,0.24622 -0.16211,0.48695 -0.26872,0.72037 -0.10661,0.23328 -0.22974,0.45864 -0.36845,0.67438 -0.1388,0.21587 -0.29285,0.42155 -0.46096,0.61546 -0.16803,0.19393 -0.34971,0.3756 -0.54363,0.54364 -0.18191,0.1563 -0.37406,0.30028 -0.57516,0.43098 l 3.6096,-2.08411 0.0537,-0.031 c 0.17006,-0.0986 0.33657,-0.20323 0.4992,-0.31367 0.17093,-0.11655 0.33744,-0.23945 0.49919,-0.36845 0.16175,-0.12914 0.31861,-0.26428 0.47026,-0.40515 0.15166,-0.14072 0.29801,-0.28707 0.43873,-0.43873 0.14086,-0.15165 0.276,-0.30851 0.40514,-0.47026 0.129,-0.16175 0.25191,-0.32826 0.36846,-0.49919 0.1162,-0.17051 0.226,-0.3453 0.32917,-0.524 l 5.2e-4,5.2e-4 10e-4,-0.002 v -5.2e-4 c 0.10343,-0.17908 0.20014,-0.36197 0.28991,-0.54828 0.0898,-0.18649 0.17249,-0.37628 0.24805,-0.56896 0.0757,-0.19254 0.14409,-0.38784 0.20515,-0.58549 0.0609,-0.19792 0.1143,-0.39805 0.1602,-0.59997 0.0462,-0.20175 0.0848,-0.40515 0.11575,-0.60978 0.0308,-0.20457 0.0539,-0.41021 0.0693,-0.6165 0.0135,-0.18798 0.0205,-0.37636 0.0212,-0.56482 V 110.7674 93.07959 c 5.1e-4,-0.683148 5e-4,-1.878774 5.1e-4,-2.686141 -8.7e-4,-1.869779 -0.68762,-3.674278 -1.93011,-5.071525 z" />
          <path
             id="path27256-7-4-2"
             style="fill:url(#linearGradient27266-7-5-3);fill-opacity:1;stroke:none;stroke-width:0.832272;stroke-miterlimit:1.6;paint-order:fill markers stroke"
             d="m 159.69465,73.511792 c -0.1653,-8.1e-5 -0.3304,0.01166 -0.49403,0.03514 -0.16338,0.02376 -0.32485,0.05916 -0.48318,0.105937 -0.15825,0.04645 -0.31298,0.104125 -0.46302,0.172599 -0.15014,0.06846 -0.2952,0.147554 -0.43408,0.236678 -0.13884,0.08932 -0.27112,0.188449 -0.39584,0.296623 -0.1248,0.108135 -0.24171,0.225049 -0.34985,0.349849 -0.10817,0.124716 -0.2073,0.257 -0.29662,0.395842 -0.0893,0.138861 -0.16857,0.283924 -0.2372,0.434082 -0.0685,0.150205 -0.12618,0.305112 -0.1726,0.463537 -0.0466,0.158343 -0.0818,0.319812 -0.10542,0.483175 -0.0227,0.160749 -0.0341,0.322896 -0.0341,0.485242 v 0.03359 25.012424 l 9.69708,-5.599138 0.91932,-0.530717 6.1402,-3.545004 1.95853,-1.13068 0.94465,-0.545186 c 0.0604,-0.04264 0.11981,-0.08657 0.17828,-0.131775 0.10006,-0.07954 0.19711,-0.1628 0.29094,-0.249597 0.0936,-0.08703 0.18394,-0.177523 0.27079,-0.271302 0.0868,-0.09366 0.17004,-0.190539 0.24959,-0.290421 0.0798,-0.09996 0.15581,-0.202865 0.2279,-0.308508 0.0719,-0.10577 0.13981,-0.214195 0.2036,-0.325045 0.064,-0.110553 0.12378,-0.223459 0.17932,-0.338481 0.0555,-0.115178 0.10672,-0.232393 0.15348,-0.3514 0.0465,-0.118965 0.0886,-0.239628 0.12609,-0.361735 0.0378,-0.122048 0.0711,-0.245469 0.0997,-0.370003 0.0285,-0.124811 0.0523,-0.250646 0.0713,-0.377238 0.019,-0.126201 0.0333,-0.253069 0.0429,-0.380338 l 5.1e-4,-0.0052 5.2e-4,-0.0057 v -5.17e-4 -5.17e-4 -5.17e-4 -5.17e-4 -5.16e-4 -5.17e-4 -5.17e-4 -5.17e-4 -5.16e-4 -5.17e-4 l 5.2e-4,-0.0057 5.1e-4,-0.0052 v -5.17e-4 -5.17e-4 -5.16e-4 -5.17e-4 -5.17e-4 -5.17e-4 -5.17e-4 -5.16e-4 -5.17e-4 -5.17e-4 -5.17e-4 l 5.2e-4,-0.0052 5.2e-4,-0.0052 v -5.17e-4 -5.16e-4 -5.17e-4 -5.17e-4 -5.17e-4 -5.16e-4 -5.17e-4 -5.17e-4 -5.17e-4 -5.16e-4 -5.17e-4 l 5.2e-4,-0.0052 5.1e-4,-0.0057 v -5.17e-4 -5.17e-4 -5.17e-4 -5.16e-4 -5.17e-4 -5.17e-4 -5.17e-4 -5.16e-4 -5.17e-4 -5.17e-4 l 5.2e-4,-0.0052 5.2e-4,-0.0057 v -5.17e-4 -5.17e-4 -5.16e-4 -5.17e-4 -5.17e-4 -5.17e-4 -5.16e-4 -5.17e-4 -5.17e-4 -5.17e-4 l 5.1e-4,-0.0057 5.2e-4,-0.0052 v -5.16e-4 -5.17e-4 -5.17e-4 -5.17e-4 -5.17e-4 -5.16e-4 -5.17e-4 -5.17e-4 -5.17e-4 -5.16e-4 -5.17e-4 l 5.2e-4,-0.0052 v -5.17e-4 -5.16e-4 -5.17e-4 -5.17e-4 -5.17e-4 -5.16e-4 -5.17e-4 -5.17e-4 -5.17e-4 -5.16e-4 l 5.1e-4,-0.0057 v -5.17e-4 -5.16e-4 -5.17e-4 -5.17e-4 -5.17e-4 -5.16e-4 -5.17e-4 -5.17e-4 -5.17e-4 -5.16e-4 l 5.2e-4,-0.0057 v -5.17e-4 -5.16e-4 -5.17e-4 -5.17e-4 -5.17e-4 -5.16e-4 -5.17e-4 -5.17e-4 -5.17e-4 -5.16e-4 l 5.2e-4,-0.0057 v -5.17e-4 -5.16e-4 -5.17e-4 -5.17e-4 -5.17e-4 -5.16e-4 -5.17e-4 -5.17e-4 -5.17e-4 -5.17e-4 l 5.1e-4,-0.0057 v -5.17e-4 -5.16e-4 -5.17e-4 -5.17e-4 -5.17e-4 -5.17e-4 -5.16e-4 -5.17e-4 -5.17e-4 -5.17e-4 l 5.2e-4,-0.0052 v -5.17e-4 -5.17e-4 -5.17e-4 -5.16e-4 -5.17e-4 -5.17e-4 -5.17e-4 -5.16e-4 -5.17e-4 -5.17e-4 -5.17e-4 l 5.2e-4,-0.0052 v -5.17e-4 -5.17e-4 -5.17e-4 -5.16e-4 -5.17e-4 -5.17e-4 -5.17e-4 -5.16e-4 -5.17e-4 -5.17e-4 -5.17e-4 -5.16e-4 -5.17e-4 -5.17e-4 -5.17e-4 -5.17e-4 -5.16e-4 -5.17e-4 -5.17e-4 -5.17e-4 -5.16e-4 l 5.1e-4,-0.0057 v -5.17e-4 -5.16e-4 -5.17e-4 -5.17e-4 -5.17e-4 -5.16e-4 -5.17e-4 -5.17e-4 -5.17e-4 -5.16e-4 l 5.2e-4,-0.0052 v -5.17e-4 -5.17e-4 -5.16e-4 -5.17e-4 -5.17e-4 -5.17e-4 -5.16e-4 -5.17e-4 -5.17e-4 -5.17e-4 -5.16e-4 -5.17e-4 -5.17e-4 -5.17e-4 -5.16e-4 -5.17e-4 -5.17e-4 -5.17e-4 -5.17e-4 -5.16e-4 -5.17e-4 l 5.2e-4,-0.0057 v -5.17e-4 -5.17e-4 -5.17e-4 -5.17e-4 -5.16e-4 -5.17e-4 -5.17e-4 -5.17e-4 -5.16e-4 -5.17e-4 -5.17e-4 -5.17e-4 -5.16e-4 -5.17e-4 -5.17e-4 -5.17e-4 -5.16e-4 -5.17e-4 -5.17e-4 -5.17e-4 -5.17e-4 l 5.1e-4,-0.0052 v -5.17e-4 -5.17e-4 -5.16e-4 -5.17e-4 -5.17e-4 -5.17e-4 -5.17e-4 -5.16e-4 -5.17e-4 -5.17e-4 -5.17e-4 -5.16e-4 -5.17e-4 -5.17e-4 -5.17e-4 -5.16e-4 -5.17e-4 -5.17e-4 -5.17e-4 -5.16e-4 -5.17e-4 l 5.2e-4,-0.0052 v -5.17e-4 -5.16e-4 -5.17e-4 -5.17e-4 -5.17e-4 -5.16e-4 -5.17e-4 -5.17e-4 -5.17e-4 -5.17e-4 -5.16e-4 -5.17e-4 -5.17e-4 -5.17e-4 -5.16e-4 -5.17e-4 -5.17e-4 -5.17e-4 -5.16e-4 -5.17e-4 -5.17e-4 -5.17e-4 -5.16e-4 -5.17e-4 -5.17e-4 -5.17e-4 -5.17e-4 -5.16e-4 -5.17e-4 -5.17e-4 -5.17e-4 -5.16e-4 l 5.2e-4,-0.0052 v -5.17e-4 -5.17e-4 -5.16e-4 -5.17e-4 -5.17e-4 -5.17e-4 -5.16e-4 -5.17e-4 -5.17e-4 -5.17e-4 -5.16e-4 -5.17e-4 -5.17e-4 -5.17e-4 -5.16e-4 -5.17e-4 -5.17e-4 -5.17e-4 -5.16e-4 -5.17e-4 -5.17e-4 -5.17e-4 -5.17e-4 -5.16e-4 -5.17e-4 -5.17e-4 -5.17e-4 -5.16e-4 -5.17e-4 -5.17e-4 -5.17e-4 -5.16e-4 -5.17e-4 -5.17e-4 -5.17e-4 -5.16e-4 -5.17e-4 -5.17e-4 -5.17e-4 -5.17e-4 -5.16e-4 -5.17e-4 l 5.1e-4,-0.0052 v -5.16e-4 -5.17e-4 -5.17e-4 -5.17e-4 -5.17e-4 -5.16e-4 -5.17e-4 -5.17e-4 -5.17e-4 -5.16e-4 -5.17e-4 -5.17e-4 -5.17e-4 -5.16e-4 -5.17e-4 -5.17e-4 -5.17e-4 -5.16e-4 -5.17e-4 -5.17e-4 -5.17e-4 -5.17e-4 -5.16e-4 -5.17e-4 -5.17e-4 -5.17e-4 -5.16e-4 -5.17e-4 -5.17e-4 -5.17e-4 -5.16e-4 -5.17e-4 -5.17e-4 -5.17e-4 -5.16e-4 -5.17e-4 -5.17e-4 -5.17e-4 -5.17e-4 -5.16e-4 -5.17e-4 -5.17e-4 -5.17e-4 -5.16e-4 -5.17e-4 -5.17e-4 -5.17e-4 -5.16e-4 -5.17e-4 -5.17e-4 -5.17e-4 -5.16e-4 -5.17e-4 -5.17e-4 -5.17e-4 -5.17e-4 -5.16e-4 -5.17e-4 -5.17e-4 -5.17e-4 -5.16e-4 -5.17e-4 -5.17e-4 l 5.2e-4,-0.0057 v -5.17e-4 -5.17e-4 -5.17e-4 -5.16e-4 -5.17e-4 -5.17e-4 -5.17e-4 -5.16e-4 -5.17e-4 -5.17e-4 -5.17e-4 -5.16e-4 -5.17e-4 -5.17e-4 -5.17e-4 -5.17e-4 -5.16e-4 -5.17e-4 -5.17e-4 -5.17e-4 -5.16e-4 -5.17e-4 -5.17e-4 -5.17e-4 -5.16e-4 -5.17e-4 -5.17e-4 -5.17e-4 -5.16e-4 -5.17e-4 -5.17e-4 -5.17e-4 -5.17e-4 -5.16e-4 -5.17e-4 -5.17e-4 -5.17e-4 -5.16e-4 -5.17e-4 -5.17e-4 -5.17e-4 -5.16e-4 -5.17e-4 -5.17e-4 -5.17e-4 -5.16e-4 -5.17e-4 -5.17e-4 -5.17e-4 -5.16e-4 -5.17e-4 -5.17e-4 -5.17e-4 -5.17e-4 -5.16e-4 -5.17e-4 -5.17e-4 -5.17e-4 -5.16e-4 -5.17e-4 -5.17e-4 -5.17e-4 -5.16e-4 -5.17e-4 -5.17e-4 -5.17e-4 -5.16e-4 -5.17e-4 -5.17e-4 -5.17e-4 -5.17e-4 -5.16e-4 -5.17e-4 -5.17e-4 -5.17e-4 -5.16e-4 -5.17e-4 -5.17e-4 -5.17e-4 -5.16e-4 -5.17e-4 -5.17e-4 -5.17e-4 -5.16e-4 -5.17e-4 -5.17e-4 -5.17e-4 -5.17e-4 -5.16e-4 -5.17e-4 -5.17e-4 -5.17e-4 -5.16e-4 -5.17e-4 -5.17e-4 -5.17e-4 -5.16e-4 -5.17e-4 -5.17e-4 -5.17e-4 -5.16e-4 -5.17e-4 -5.17e-4 -5.17e-4 -5.17e-4 -5.16e-4 -5.17e-4 -5.17e-4 -5.17e-4 -5.16e-4 -5.17e-4 -5.17e-4 -5.17e-4 -5.16e-4 -5.17e-4 -5.17e-4 -5.17e-4 -5.16e-4 -5.17e-4 -5.17e-4 -5.17e-4 -5.17e-4 -5.16e-4 -5.17e-4 -5.17e-4 -5.17e-4 -5.16e-4 -5.17e-4 -5.17e-4 -5.17e-4 -5.16e-4 -5.17e-4 -5.17e-4 -5.17e-4 -5.16e-4 -5.17e-4 -5.17e-4 -5.17e-4 -5.17e-4 -5.16e-4 -5.17e-4 -5.17e-4 -5.17e-4 -5.16e-4 -5.17e-4 -5.17e-4 -5.17e-4 -5.16e-4 -5.17e-4 -5.17e-4 -5.17e-4 -5.16e-4 -5.17e-4 -5.17e-4 -5.17e-4 -5.17e-4 -5.16e-4 -5.17e-4 -5.17e-4 -5.17e-4 -5.16e-4 -5.17e-4 -5.17e-4 -5.17e-4 -5.16e-4 -5.17e-4 -5.17e-4 -5.17e-4 -5.16e-4 -5.17e-4 -5.17e-4 -5.17e-4 -5.17e-4 -5.16e-4 -5.17e-4 -5.17e-4 -5.17e-4 -5.16e-4 -5.17e-4 -5.17e-4 -5.17e-4 -5.16e-4 -5.17e-4 -5.17e-4 -5.17e-4 -5.16e-4 -5.17e-4 -5.17e-4 -5.17e-4 -5.17e-4 -5.16e-4 -5.17e-4 -5.17e-4 -5.17e-4 -5.16e-4 -5.17e-4 -5.17e-4 -5.17e-4 -5.16e-4 -5.17e-4 -5.17e-4 -5.17e-4 -5.16e-4 -5.17e-4 -5.17e-4 -5.17e-4 -5.16e-4 -5.17e-4 -5.17e-4 -5.17e-4 -5.17e-4 -5.16e-4 -5.17e-4 -5.17e-4 -5.17e-4 -5.16e-4 l -5.2e-4,-0.0016 v -5.16e-4 -5.17e-4 -5.17e-4 -5.17e-4 -5.16e-4 -5.17e-4 -5.17e-4 -5.17e-4 -5.17e-4 -5.16e-4 -5.17e-4 -5.17e-4 -5.17e-4 -5.16e-4 -5.17e-4 -5.17e-4 -5.17e-4 -5.16e-4 -5.17e-4 -5.17e-4 -5.17e-4 -5.16e-4 -5.17e-4 -5.17e-4 -5.17e-4 -5.17e-4 -5.16e-4 -5.17e-4 -5.17e-4 -5.17e-4 -5.16e-4 -5.17e-4 -5.17e-4 -5.17e-4 -5.16e-4 -5.17e-4 -5.17e-4 -5.17e-4 -5.16e-4 -5.17e-4 -5.17e-4 -5.17e-4 -5.17e-4 -5.16e-4 -5.17e-4 -5.17e-4 -5.17e-4 -5.16e-4 -5.17e-4 -5.17e-4 -5.17e-4 -5.16e-4 -5.17e-4 -5.17e-4 -5.17e-4 -5.16e-4 -5.17e-4 -5.17e-4 -5.17e-4 -5.17e-4 -5.16e-4 -5.17e-4 -5.17e-4 -5.17e-4 -5.16e-4 -5.17e-4 -5.17e-4 -5.17e-4 -5.16e-4 l -5.1e-4,-0.0021 v -5.17e-4 -5.17e-4 -5.17e-4 -5.17e-4 -5.16e-4 -5.17e-4 -5.17e-4 -5.17e-4 -5.16e-4 -5.17e-4 -5.17e-4 -5.17e-4 -5.16e-4 -5.17e-4 -5.17e-4 -5.17e-4 -5.16e-4 -5.17e-4 -5.17e-4 -5.17e-4 -5.17e-4 -5.16e-4 -5.17e-4 -5.17e-4 -5.17e-4 -5.16e-4 -5.17e-4 -5.17e-4 -5.17e-4 -5.16e-4 -5.17e-4 -5.17e-4 -5.17e-4 -5.16e-4 -5.17e-4 -5.17e-4 -5.17e-4 -5.17e-4 -5.16e-4 -5.17e-4 -5.17e-4 -5.17e-4 -5.16e-4 -5.17e-4 -5.17e-4 -5.17e-4 l -5.2e-4,-0.0021 v -5.16e-4 -5.17e-4 -5.17e-4 -5.17e-4 -5.17e-4 -5.16e-4 -5.17e-4 -5.17e-4 -5.17e-4 -5.16e-4 -5.17e-4 -5.17e-4 -5.17e-4 -5.16e-4 -5.17e-4 -5.17e-4 -5.17e-4 -5.16e-4 c -0.001,-0.04395 -0.003,-0.08787 -0.005,-0.131775 -0.002,-0.04396 -0.005,-0.08789 -0.008,-0.131775 -0.003,-0.04397 -0.007,-0.0879 -0.0114,-0.131775 -0.005,-0.04364 -0.01,-0.08723 -0.0155,-0.130742 -0.006,-0.04366 -0.0118,-0.08724 -0.0186,-0.130741 -0.007,-0.0435 -0.0143,-0.08691 -0.0222,-0.130225 -0.008,-0.04334 -0.0163,-0.08658 -0.0253,-0.129707 -0.009,-0.04301 -0.0187,-0.08591 -0.0289,-0.128675 -0.002,-0.0091 -0.004,-0.01826 -0.007,-0.02739 -8.1e-4,-9.53e-4 -6.7e-4,-0.0024 -0.001,-0.0036 -0.008,-0.03246 -0.0155,-0.06485 -0.0238,-0.09715 -0.0113,-0.04235 -0.0232,-0.08456 -0.0357,-0.126607 -0.0122,-0.04254 -0.0249,-0.08492 -0.0382,-0.127124 -0.0134,-0.04169 -0.0274,-0.08321 -0.0419,-0.124541 -0.0143,-0.0417 -0.0291,-0.08322 -0.0444,-0.12454 -0.0157,-0.04103 -0.0319,-0.08186 -0.0486,-0.122473 l -0.004,-0.0093 c -0.0152,-0.03774 -0.0309,-0.07529 -0.047,-0.112654 -0.0176,-0.04037 -0.0357,-0.08051 -0.0543,-0.120407 -0.0186,-0.03969 -0.0377,-0.07914 -0.0574,-0.118339 -0.0198,-0.03936 -0.0401,-0.07847 -0.061,-0.117305 -0.0207,-0.03886 -0.0419,-0.07744 -0.0636,-0.115755 -0.0216,-0.03818 -0.0436,-0.07608 -0.0661,-0.113688 -0.0226,-0.03785 -0.0457,-0.0754 -0.0693,-0.112655 -0.0236,-0.037 -0.0478,-0.07369 -0.0724,-0.110071 -0.0245,-0.03667 -0.0495,-0.07301 -0.0749,-0.109037 -0.0255,-0.03582 -0.0516,-0.07131 -0.078,-0.106454 -0.0264,-0.03531 -0.0533,-0.07028 -0.0806,-0.104903 -0.0273,-0.03446 -0.055,-0.06857 -0.0832,-0.102319 -0.0282,-0.03378 -0.0568,-0.0672 -0.0858,-0.100252 -0.029,-0.03293 -0.0585,-0.06549 -0.0884,-0.09767 -0.0299,-0.03243 -0.0602,-0.06447 -0.0909,-0.09612 -0.0308,-0.03141 -0.062,-0.06242 -0.0935,-0.09302 -0.0315,-0.03073 -0.0633,-0.06105 -0.0956,-0.09095 -0.0324,-0.02988 -0.0651,-0.05933 -0.0982,-0.08837 -0.0331,-0.02902 -0.0665,-0.05762 -0.10025,-0.08578 -0.0336,-0.02817 -0.0675,-0.0559 -0.1018,-0.0832 -0.0346,-0.02732 -0.0696,-0.0542 -0.1049,-0.08062 -0.0353,-0.02647 -0.071,-0.05248 -0.10697,-0.07803 -0.0357,-0.02561 -0.0717,-0.05076 -0.10801,-0.07545 -0.0366,-0.02442 -0.0734,-0.04836 -0.11058,-0.07183 -0.004,-0.0022 -0.008,-0.0045 -0.0114,-0.0067 L 175.25512,81.98854 161.71641,74.171446 161.0782,73.80351 c -0.13227,-0.05891 -0.2681,-0.109485 -0.40669,-0.151412 -0.15834,-0.0466 -0.31981,-0.08183 -0.48317,-0.10542 -0.16328,-0.0236 -0.32803,-0.03552 -0.493,-0.03566 z" />
          <path
             id="path13454-3-39-1"
             style="fill:url(#linearGradient32733-4-8-2);fill-opacity:1;stroke:none;stroke-width:0.799999;stroke-miterlimit:1.6;paint-order:fill markers stroke"
             d="m 156.23129,102.01444 -29.36151,16.95091 -0.3912,0.22582 a 2.4288783,2.4288783 0 0 0 -0.10955,0.0811 2.4288783,2.4288783 0 0 0 -0.13746,0.11834 2.4288783,2.4288783 0 0 0 -0.12867,0.12867 2.4288783,2.4288783 0 0 0 -0.11834,0.13746 2.4288783,2.4288783 0 0 0 -0.10801,0.14624 2.4288783,2.4288783 0 0 0 -0.0966,0.15348 2.4288783,2.4288783 0 0 0 -0.0847,0.16072 2.4288783,2.4288783 0 0 0 -0.0724,0.16639 2.4288783,2.4288783 0 0 0 -0.0605,0.17157 2.4288783,2.4288783 0 0 0 -0.0465,0.1757 2.4288783,2.4288783 0 0 0 -0.0341,0.17828 2.4288783,2.4288783 0 0 0 -0.0207,0.18035 2.4288783,2.4288783 0 0 0 -0.007,0.18139 2.4288783,2.4288783 0 0 0 0,5.2e-4 2.4288783,2.4288783 0 0 0 0,5.1e-4 2.4288783,2.4288783 0 0 0 0,5.2e-4 2.4288783,2.4288783 0 0 0 0,5.2e-4 2.4288783,2.4288783 0 0 0 0,5.1e-4 2.4288783,2.4288783 0 0 0 0,5.2e-4 2.4288783,2.4288783 0 0 0 0,5.2e-4 2.4288783,2.4288783 0 0 0 0,5.1e-4 2.4288783,2.4288783 0 0 0 0,5.2e-4 2.4288783,2.4288783 0 0 0 0,5.2e-4 2.4288783,2.4288783 0 0 0 0,5.1e-4 2.4288783,2.4288783 0 0 0 0,5.2e-4 2.4288783,2.4288783 0 0 0 0,5.2e-4 2.4288783,2.4288783 0 0 0 0,5.1e-4 2.4288783,2.4288783 0 0 0 0,5.2e-4 2.4288783,2.4288783 0 0 0 0,5.2e-4 2.4288783,2.4288783 0 0 0 0,5.1e-4 2.4288783,2.4288783 0 0 0 0,5.2e-4 2.4288783,2.4288783 0 0 0 0,5.2e-4 2.4288783,2.4288783 0 0 0 0,5.1e-4 2.4288783,2.4288783 0 0 0 0,5.2e-4 2.4288783,2.4288783 0 0 0 0,5.2e-4 2.4288783,2.4288783 0 0 0 0,5.1e-4 2.4288783,2.4288783 0 0 0 0,5.2e-4 2.4288783,2.4288783 0 0 0 0,5.2e-4 2.4288783,2.4288783 0 0 0 0,5.1e-4 2.4288783,2.4288783 0 0 0 0,5.2e-4 2.4288783,2.4288783 0 0 0 0,5.2e-4 2.4288783,2.4288783 0 0 0 0,5.1e-4 2.4288783,2.4288783 0 0 0 0,5.2e-4 2.4288783,2.4288783 0 0 0 0,5.2e-4 2.4288783,2.4288783 0 0 0 0,5.1e-4 2.4288783,2.4288783 0 0 0 0,5.2e-4 2.4288783,2.4288783 0 0 0 0,5.2e-4 2.4288783,2.4288783 0 0 0 0,5.2e-4 2.4288783,2.4288783 0 0 0 0,5.1e-4 2.4288783,2.4288783 0 0 0 0,5.2e-4 2.4288783,2.4288783 0 0 0 0,5.2e-4 2.4288783,2.4288783 0 0 0 0,5.1e-4 2.4288783,2.4288783 0 0 0 0,5.2e-4 2.4288783,2.4288783 0 0 0 0,5.2e-4 2.4288783,2.4288783 0 0 0 0,5.1e-4 2.4288783,2.4288783 0 0 0 0,5.2e-4 2.4288783,2.4288783 0 0 0 0,5.2e-4 2.4288783,2.4288783 0 0 0 0,5.1e-4 2.4288783,2.4288783 0 0 0 0,5.2e-4 2.4288783,2.4288783 0 0 0 0,5.2e-4 2.4288783,2.4288783 0 0 0 0,5.1e-4 2.4288783,2.4288783 0 0 0 0,5.2e-4 2.4288783,2.4288783 0 0 0 0,5.2e-4 2.4288783,2.4288783 0 0 0 0,5.1e-4 2.4288783,2.4288783 0 0 0 0,5.2e-4 2.4288783,2.4288783 0 0 0 0,5.2e-4 2.4288783,2.4288783 0 0 0 0,5.1e-4 2.4288783,2.4288783 0 0 0 0,5.2e-4 2.4288783,2.4288783 0 0 0 0,5.2e-4 2.4288783,2.4288783 0 0 0 0,5.1e-4 2.4288783,2.4288783 0 0 0 0,5.2e-4 2.4288783,2.4288783 0 0 0 0,5.2e-4 2.4288783,2.4288783 0 0 0 0,5.1e-4 2.4288783,2.4288783 0 0 0 0,5.2e-4 2.4288783,2.4288783 0 0 0 0,5.2e-4 2.4288783,2.4288783 0 0 0 0,5.1e-4 2.4288783,2.4288783 0 0 0 0,5.2e-4 2.4288783,2.4288783 0 0 0 0,5.2e-4 2.4288783,2.4288783 0 0 0 0,5.1e-4 2.4288783,2.4288783 0 0 0 0,5.2e-4 2.4288783,2.4288783 0 0 0 0,5.2e-4 2.4288783,2.4288783 0 0 0 0,5.2e-4 2.4288783,2.4288783 0 0 0 0,5.1e-4 2.4288783,2.4288783 0 0 0 0,5.2e-4 2.4288783,2.4288783 0 0 0 0,5.2e-4 2.4288783,2.4288783 0 0 0 0,5.1e-4 2.4288783,2.4288783 0 0 0 0,5.2e-4 2.4288783,2.4288783 0 0 0 0,5.2e-4 2.4288783,2.4288783 0 0 0 0,5.1e-4 2.4288783,2.4288783 0 0 0 0,5.2e-4 2.4288783,2.4288783 0 0 0 0,5.2e-4 2.4288783,2.4288783 0 0 0 0,5.1e-4 2.4288783,2.4288783 0 0 0 0,5.2e-4 2.4288783,2.4288783 0 0 0 0,5.2e-4 2.4288783,2.4288783 0 0 0 0,5.1e-4 2.4288783,2.4288783 0 0 0 0,5.2e-4 2.4288783,2.4288783 0 0 0 0,5.2e-4 2.4288783,2.4288783 0 0 0 0,5.1e-4 2.4288783,2.4288783 0 0 0 0,5.2e-4 2.4288783,2.4288783 0 0 0 0,5.2e-4 2.4288783,2.4288783 0 0 0 0,5.1e-4 2.4288783,2.4288783 0 0 0 0,5.2e-4 2.4288783,2.4288783 0 0 0 0,5.2e-4 2.4288783,2.4288783 0 0 0 0,5.1e-4 2.4288783,2.4288783 0 0 0 5.1e-4,0.002 2.4288783,2.4288783 0 0 0 0,5.2e-4 2.4288783,2.4288783 0 0 0 0,5.1e-4 2.4288783,2.4288783 0 0 0 0,5.2e-4 2.4288783,2.4288783 0 0 0 0,5.2e-4 2.4288783,2.4288783 0 0 0 0,5.1e-4 2.4288783,2.4288783 0 0 0 0,5.2e-4 2.4288783,2.4288783 0 0 0 0,5.2e-4 2.4288783,2.4288783 0 0 0 0,5.2e-4 2.4288783,2.4288783 0 0 0 0,5.1e-4 2.4288783,2.4288783 0 0 0 0,5.2e-4 2.4288783,2.4288783 0 0 0 0,5.2e-4 2.4288783,2.4288783 0 0 0 0,5.1e-4 2.4288783,2.4288783 0 0 0 0,5.2e-4 2.4288783,2.4288783 0 0 0 0,5.2e-4 2.4288783,2.4288783 0 0 0 0,5.1e-4 2.4288783,2.4288783 0 0 0 0,5.2e-4 2.4288783,2.4288783 0 0 0 0,5.2e-4 2.4288783,2.4288783 0 0 0 0,5.1e-4 2.4288783,2.4288783 0 0 0 0,5.2e-4 2.4288783,2.4288783 0 0 0 0,5.2e-4 2.4288783,2.4288783 0 0 0 0,5.1e-4 2.4288783,2.4288783 0 0 0 0,5.2e-4 2.4288783,2.4288783 0 0 0 0,5.2e-4 2.4288783,2.4288783 0 0 0 0,5.1e-4 2.4288783,2.4288783 0 0 0 0,5.2e-4 2.4288783,2.4288783 0 0 0 0,5.2e-4 2.4288783,2.4288783 0 0 0 0,5.1e-4 2.4288783,2.4288783 0 0 0 0.003,0.0625 2.4288783,2.4288783 0 0 0 0.004,0.0625 2.4288783,2.4288783 0 0 0 0.006,0.0625 2.4288783,2.4288783 0 0 0 0.007,0.062 2.4288783,2.4288783 0 0 0 0.009,0.0615 2.4288783,2.4288783 0 0 0 0.0103,0.062 2.4288783,2.4288783 0 0 0 0.0119,0.0615 2.4288783,2.4288783 0 0 0 0.0134,0.061 2.4288783,2.4288783 0 0 0 0.0155,0.0605 2.4288783,2.4288783 0 0 0 0.0165,0.0605 2.4288783,2.4288783 0 0 0 0.0181,0.06 2.4288783,2.4288783 0 0 0 0.0202,0.0594 2.4288783,2.4288783 0 0 0 0.0212,0.0584 2.4288783,2.4288783 0 0 0 0.0227,0.0584 2.4288783,2.4288783 0 0 0 0.0243,0.0579 2.4288783,2.4288783 0 0 0 0.0258,0.0568 2.4288783,2.4288783 0 0 0 0.0274,0.0558 2.4288783,2.4288783 0 0 0 0.0284,0.0558 2.4288783,2.4288783 0 0 0 0.03,0.0553 2.4288783,2.4288783 0 0 0 0.0315,0.0532 2.4288783,2.4288783 0 0 0 0.0331,0.0532 2.4288783,2.4288783 0 0 0 0.0341,0.0522 2.4288783,2.4288783 0 0 0 0.0357,0.0517 2.4288783,2.4288783 0 0 0 0.0367,0.0507 2.4288783,2.4288783 0 0 0 0.0382,0.0491 2.4288783,2.4288783 0 0 0 0.0398,0.0486 2.4288783,2.4288783 0 0 0 0.0403,0.0475 2.4288783,2.4288783 0 0 0 0.0419,0.0465 2.4288783,2.4288783 0 0 0 0.0434,0.0455 2.4288783,2.4288783 0 0 0 0.0439,0.0439 2.4288783,2.4288783 0 0 0 0.0455,0.0434 2.4288783,2.4288783 0 0 0 0.0465,0.0419 2.4288783,2.4288783 0 0 0 0.0475,0.0408 2.4288783,2.4288783 0 0 0 0.0486,0.0393 2.4288783,2.4288783 0 0 0 0.0496,0.0382 2.4288783,2.4288783 0 0 0 0.0501,0.0367 2.4288783,2.4288783 0 0 0 0.0517,0.0357 2.4288783,2.4288783 0 0 0 0.0139,0.009 l 0.26355,0.15193 15.44815,8.91987 0.39894,0.23048 a 8.2987852,8.2987852 0 0 0 0.0424,0.0232 8.2987852,8.2987852 0 0 0 0.18965,0.0977 8.2987852,8.2987852 0 0 0 0.19275,0.093 8.2987852,8.2987852 0 0 0 0.19431,0.0884 8.2987852,8.2987852 0 0 0 0.19689,0.0832 8.2987852,8.2987852 0 0 0 0.19947,0.0775 8.2987852,8.2987852 0 0 0 0.2005,0.0729 8.2987852,8.2987852 0 0 0 0.20309,0.0677 8.2987852,8.2987852 0 0 0 0.20412,0.0625 8.2987852,8.2987852 0 0 0 0.20619,0.0568 8.2987852,8.2987852 0 0 0 0.20722,0.0517 8.2987852,8.2987852 0 0 0 0.20826,0.0465 8.2987852,8.2987852 0 0 0 0.20981,0.0413 8.2987852,8.2987852 0 0 0 0.21083,0.0351 8.2987852,8.2987852 0 0 0 0.21136,0.0305 8.2987852,8.2987852 0 0 0 0.21239,0.0248 8.2987852,8.2987852 0 0 0 0.21291,0.0191 8.2987852,8.2987852 0 0 0 0.21342,0.0134 8.2987852,8.2987852 0 0 0 0.21343,0.008 8.2987852,8.2987852 0 0 0 0.21342,0.003 v 5.1e-4 a 8.2987852,8.2987852 0 0 0 0.62063,-0.0232 8.2987852,8.2987852 0 0 0 0.6165,-0.0698 8.2987852,8.2987852 0 0 0 0.60979,-0.11524 8.2987852,8.2987852 0 0 0 0.59944,-0.16072 8.2987852,8.2987852 0 0 0 0.5855,-0.20463 8.2987852,8.2987852 0 0 0 0.56895,-0.24857 8.2987852,8.2987852 0 0 0 0.46509,-0.24546 l 0.16433,-0.0951 20.68866,-11.94397 a 5.3883686,5.3883686 0 0 0 0.22479,-0.12971 l 0.25942,-0.14986 a 5.3883686,5.3883686 0 0 0 0.57516,-0.43098 5.3883686,5.3883686 0 0 0 0.54363,-0.54364 5.3883686,5.3883686 0 0 0 0.46096,-0.61546 5.3883686,5.3883686 0 0 0 0.36845,-0.67438 5.3883686,5.3883686 0 0 0 0.26872,-0.72037 5.3883686,5.3883686 0 0 0 0.1633,-0.75138 5.3883686,5.3883686 0 0 0 0.0548,-0.76687 5.3883686,5.3883686 0 0 0 -0.007,-0.27285 5.3883686,5.3883686 0 0 0 -0.0212,-0.27234 5.3883686,5.3883686 0 0 0 -0.0341,-0.27078 5.3883686,5.3883686 0 0 0 -0.0486,-0.26872 5.3883686,5.3883686 0 0 0 -0.0615,-0.26562 5.3883686,5.3883686 0 0 0 -0.0749,-0.26251 5.3883686,5.3883686 0 0 0 -0.0884,-0.25839 5.3883686,5.3883686 0 0 0 -0.10128,-0.25373 5.3883686,5.3883686 0 0 0 -0.11421,-0.24805 5.3883686,5.3883686 0 0 0 -0.12609,-0.24184 5.3883686,5.3883686 0 0 0 -0.13849,-0.23513 5.3883686,5.3883686 0 0 0 -0.15038,-0.22841 5.3883686,5.3883686 0 0 0 -0.16175,-0.21962 5.3883686,5.3883686 0 0 0 -0.1726,-0.21188 5.3883686,5.3883686 0 0 0 -0.18293,-0.20257 5.3883686,5.3883686 0 0 0 -0.19275,-0.19275 5.3883686,5.3883686 0 0 0 -0.20257,-0.18345 5.3883686,5.3883686 0 0 0 -0.21188,-0.17209 5.3883686,5.3883686 0 0 0 -0.17725,-0.13022 l -0.87385,-0.50436 -6.99233,-4.03748 z" />
        </g>
      </g>
    </g>
  </g>
</svg>
